<?xml version="1.0" encoding="utf-8"?>
<!-- Generator: Adobe Illustrator 25.2.0, SVG Export Plug-In . SVG Version: 6.00 Build 0)  -->
<svg version="1.1" id="Layer_1" xmlns="http://www.w3.org/2000/svg" xmlns:xlink="http://www.w3.org/1999/xlink" x="0px" y="0px"
	 viewBox="0 0 100 100" style="enable-background:new 0 0 100 100;" xml:space="preserve">
<style type="text/css">
	.st0{fill:#E6E6E6;fill-opacity:0.41;}
</style>
<g>
	<circle class="st0" cx="50" cy="50" r="50"/>
	<path id="normal" d="M43.39,34.29L50,12.67l6.61,21.62c0.47,1.52,2.03,2.43,3.58,2.08l22.14-5.03L66.3,47.89
		c-1.14,1.17-1.14,3.05,0,4.23l16.03,16.56L60.3,62.83c-1.59-0.43-3.23,0.5-3.69,2.08L50,87.33l-6.61-22.16
		c-0.47-1.56-2.08-2.48-3.65-2.08l-22.06,5.58l16.03-16.56c1.14-1.17,1.14-3.05,0-4.23L17.67,31.33l22.14,5.03
		C41.36,36.71,42.92,35.81,43.39,34.29z"/>
</g>
</svg>
