<?xml version="1.0" encoding="utf-8"?>
<!-- Generator: Adobe Illustrator 25.2.0, SVG Export Plug-In . SVG Version: 6.00 Build 0)  -->
<svg version="1.1" id="Layer_1" xmlns="http://www.w3.org/2000/svg" xmlns:xlink="http://www.w3.org/1999/xlink" x="0px" y="0px"
	 viewBox="0 0 100 100" style="enable-background:new 0 0 100 100;" xml:space="preserve">
<style type="text/css">
	.st0{fill:#AA3524;}
</style>
<g>
	<circle class="st0" cx="50" cy="50" r="50"/>
	<g id="fighting">
		<path d="M23.2,47.92h7.21c1.52,0,2.74-1.23,2.74-2.74v-18.2c0-1.52-1.23-2.74-2.74-2.74H23.2c-1.52,0-2.74,1.23-2.74,2.74v18.2
			C20.46,46.69,21.69,47.92,23.2,47.92z"/>
		<path d="M75.02,24.23H67.8c-1.52,0-2.74,1.23-2.74,2.74v18.2c0,1.52,1.23,2.74,2.74,2.74h7.21c1.52,0,2.74-1.23,2.74-2.74v-18.2
			C77.76,25.45,76.53,24.23,75.02,24.23z"/>
		<path d="M53.38,47.92h7.21c1.52,0,2.74-1.23,2.74-2.74V23.2c0-1.52-1.23-2.74-2.74-2.74h-7.21c-1.52,0-2.74,1.23-2.74,2.74v21.98
			C50.63,46.69,51.86,47.92,53.38,47.92z"/>
		<path d="M37.97,47.92h7.21c1.52,0,2.74-1.23,2.74-2.74V23.2c0-1.52-1.23-2.74-2.74-2.74h-7.21c-1.52,0-2.74,1.23-2.74,2.74v21.98
			C35.23,46.69,36.45,47.92,37.97,47.92z"/>
		<path d="M38.83,69.91v-0.74v-1.49c0-2.75,2.23-4.98,4.98-4.98h1.37h0.6c2.75,0,4.98-2.23,4.98-4.98v-2.23
			c0-2.75-2.23-4.98-4.98-4.98H33.85h-1.14h-7.27c-2.75,0-4.98,2.23-4.98,4.98v14.43c0,2.75,2.23,4.98,4.98,4.98h8.41
			C36.6,74.88,38.83,72.65,38.83,69.91z"/>
		<path d="M72.77,50.5H58.87c-2.75,0-4.99,2.23-4.99,4.99v4.36v0.72c0,2.75-2.23,4.99-4.99,4.99h-0.44h-1.9
			c-2.75,0-4.99,2.23-4.99,4.99v1.68v0.55c0,2.75-2.23,4.99-4.99,4.99h-0.05h-0.06v0.01c-0.35,0.03-0.63,0.32-0.63,0.69v4.63
			c0,0.38,0.31,0.7,0.7,0.7h10.01H58.1h4.29c0.38,0,0.7-0.31,0.7-0.7v-2.33v-0.88c0-2.75,2.23-4.99,4.99-4.99h0.65h4.03
			c2.75,0,4.99-2.23,4.99-4.99V55.49C77.76,52.73,75.53,50.5,72.77,50.5z"/>
	</g>
</g>
</svg>
