<?xml version="1.0" encoding="utf-8"?>
<!-- Generator: Adobe Illustrator 25.2.0, SVG Export Plug-In . SVG Version: 6.00 Build 0)  -->
<svg version="1.1" id="Layer_1" xmlns="http://www.w3.org/2000/svg" xmlns:xlink="http://www.w3.org/1999/xlink" x="0px" y="0px"
	 viewBox="0 0 100 100" style="enable-background:new 0 0 100 100;" xml:space="preserve">
<style type="text/css">
	.st0{fill:#D92129;}
</style>
<g>
	<circle class="st0" cx="50" cy="50" r="50"/>
	<path id="fire" d="M70.74,62.88c0,0,14.06-10.02,13.69-17.65c-0.37-7.62-2.69-8.61-2.69-8.61s-3.74,11.07-17.73,10.62
		c0,0,3.66-31.47-17.06-37.2c0,0,5.23,7.36,2.92,11.1c-2.32,3.74-12.11,9.65-14.96,14.29c-2.84,4.63-3.66,10.17-0.75,16
		c0,0-12.79-7.48-4.72-20.35c0,0-9.87,5.09-10.4,14.96c-0.53,9.87,2.47,15.03,7.92,21.24c0,0-7.25-1.27-12.04-6.66
		c0,0,4.25,27.15,35.52,27.15s38.89-30.74,38.89-32.53C89.36,55.24,80.54,63.48,70.74,62.88z M64.91,78.14
		c1.12,3.89-3.59,8.31-14.96,8.31s-14.89-7.03-14.14-9.28c0.75-2.24,2.69-2.92,3.06-5.69c0.37-2.77-3.59-4.49-3.59-4.49
		c5.46-2.24,8.61,4.49,8.61,4.49c2.02-1.12,2.17-3.44,1.94-5.46c-0.23-2.02-6.06-4.12-2.99-8.75c3.06-4.63,10.25-5.39,10.25-5.39
		s-2.47,3.29-2.99,5.16c-0.53,1.87,3.14,3.66,4.42,5.39c1.27,1.72,1.34,6.73,1.34,6.73c4.03-6.81,9.87-5.53,9.87-5.53
		C58.1,69.91,63.78,74.25,64.91,78.14z"/>
</g>
</svg>
