<?xml version="1.0" encoding="utf-8"?>
<!-- Generator: Adobe Illustrator 25.2.0, SVG Export Plug-In . SVG Version: 6.00 Build 0)  -->
<svg version="1.1" id="Layer_1" xmlns="http://www.w3.org/2000/svg" xmlns:xlink="http://www.w3.org/1999/xlink" x="0px" y="0px"
	 viewBox="0 0 100 100" style="enable-background:new 0 0 100 100;" xml:space="preserve">
<style type="text/css">
	.st0{fill:#99469A;}
</style>
<g>
	<circle class="st0" cx="50" cy="50" r="50"/>
	<path id="psychic" d="M49.63,20.79c-26.83,0-39.6,29.07-39.6,29.07s12.77,29.07,39.6,29.07s40.35-29.07,40.35-29.07
		S76.46,20.79,49.63,20.79z M43.05,49.86c3.63,0,6.57-2.94,6.57-6.57c0-2.55-1.46-4.77-3.59-5.86c1.11-0.44,2.32-0.69,3.59-0.69
		c5.37,0,9.71,4.35,9.71,9.71s-4.35,9.71-9.71,9.71c-4.39,0-8.1-2.91-9.31-6.91C41.16,49.64,42.07,49.86,43.05,49.86z M49.7,72.2
		c-21.41,0-31.61-22.34-31.61-22.34s7.18-15.72,22.13-20.78c-6.34,3.37-10.66,10.04-10.66,17.72c0,11.08,8.98,20.06,20.06,20.06
		c11.08,0,20.06-8.98,20.06-20.06c0-7.82-4.47-14.58-10.99-17.89c15.43,4.88,23.21,20.95,23.21,20.95S71.11,72.2,49.7,72.2z"/>
</g>
</svg>
