<?xml version="1.0" encoding="utf-8"?>
<!-- Generator: Adobe Illustrator 25.2.0, SVG Export Plug-In . SVG Version: 6.00 Build 0)  -->
<svg version="1.1" id="Layer_1" xmlns="http://www.w3.org/2000/svg" xmlns:xlink="http://www.w3.org/1999/xlink" x="0px" y="0px"
	 viewBox="0 0 64 64" style="enable-background:new 0 0 64 64;" xml:space="preserve">
<style type="text/css">
	.st0{opacity:0.5;}
	.st1{opacity:0.75;}
</style>
<path class="st0" d="M61.86,15.38l-11.92-4.34v37.68c0,2.97-2.41,5.38-5.38,5.38h-6.36l8.45,3.08c0.82,0.29,1.69,0.26,2.48-0.11
	c0.79-0.37,1.38-1.01,1.68-1.83l13-35.71C64.42,17.86,63.54,16,61.86,15.38z"/>
<path class="st1" d="M44.56,7.48H31.64C31.73,7.65,31.83,7.82,31.9,8l13,35.71c1.02,2.8-0.43,5.9-3.23,6.93l0,0l-3.65,1.32h6.54
	c1.79,0,3.23-1.45,3.23-3.23V10.71C47.8,8.92,46.35,7.48,44.56,7.48z"/>
<path d="M42.77,46.94c0.37-0.79,0.41-1.67,0.11-2.48l-13-35.72c-0.3-0.82-0.89-1.46-1.68-1.83c-0.44-0.2-0.9-0.3-1.37-0.3
	c-0.38,0-0.75,0.06-1.11,0.19L2.14,15.38C0.46,16-0.42,17.86,0.2,19.54l13,35.72c0.3,0.82,0.89,1.46,1.68,1.83s1.67,0.41,2.48,0.11
	l23.59-8.58l0,0C41.76,48.32,42.4,47.72,42.77,46.94z"/>
</svg>
