<?xml version="1.0" encoding="utf-8"?>
<!-- Generator: Adobe Illustrator 25.2.0, SVG Export Plug-In . SVG Version: 6.00 Build 0)  -->
<svg version="1.1" id="Layer_1" xmlns="http://www.w3.org/2000/svg" xmlns:xlink="http://www.w3.org/1999/xlink" x="0px" y="0px"
	 viewBox="0 0 100 100" style="enable-background:new 0 0 100 100;" xml:space="preserve">
<style type="text/css">
	.st0{fill:#C8599F;}
</style>
<g>
	<circle class="st0" cx="50" cy="50" r="50"/>
	<g id="fairy">
		<path d="M31.93,57.71c-18.06-8.1-9.54-30.66-8.48-33.26c-5.85,6.38-9.43,14.89-9.43,24.23c0,19.56,15.67,35.45,35.14,35.82
			C49.31,81.94,49.58,65.62,31.93,57.71z"/>
		<path d="M70.51,28.5c-13.89,1.88-19.18-4.3-20.67-13.12c-1.49,8.82-6.78,14.99-20.67,13.12c10.25,8.16,16.76,8.49,20.67,34.17
			C53.76,36.98,60.26,36.65,70.51,28.5z"/>
		<path d="M76.24,24.45c1.05,2.61,9.58,25.16-8.48,33.26c-17.64,7.91-17.38,24.23-17.22,26.78C70,84.12,85.67,68.23,85.67,48.67
			C85.67,39.33,82.09,30.82,76.24,24.45z"/>
	</g>
</g>
</svg>
