<?xml version="1.0" encoding="utf-8"?>
<!-- Generator: Adobe Illustrator 25.2.0, SVG Export Plug-In . SVG Version: 6.00 Build 0)  -->
<svg version="1.1" id="Layer_1" xmlns="http://www.w3.org/2000/svg" xmlns:xlink="http://www.w3.org/1999/xlink" x="0px" y="0px"
	 viewBox="0 0 100 100" style="enable-background:new 0 0 100 100;" xml:space="preserve">
<style type="text/css">
	.st0{fill:#238842;}
</style>
<g>
	<circle class="st0" cx="50" cy="50" r="50"/>
	<path id="grass" d="M61.74,11.95c-11.82,4.64-35.12,13.03-44.29,34.35S35.9,75.23,35.9,75.23l1.99,9.38l10.16,2.21l-0.66-9.72
		c0,0,30.59,1.43,34.46-17.45C85.7,40.77,61.74,11.95,61.74,11.95z M70.65,60.28c0,0-17.3-5.01-28.19,7.59l-0.52,10.01
		c0,0-3.31-3.39-3.09-12.74c0,0-2.28-7.29-15.9-9.64c0,0,8.61-3.13,16.12,2.73l1.69-7.59c0,0-4.49-7.66-14.2-7.59
		c0,0,7.8-4.12,15.75,2.5l2.21-5.38c0,0-2.06-6.04-9.71-8.18c0,0,4.93-2.21,11.71,3.24l9.35-13.33l-5.52,13.77
		c0,0,9.2-4.35,17.82-0.73c0,0-14.29-0.73-19.73,6.4l-1.25,4.93c0,0,13.33-7.07,25.4,2.14c0,0-14.2-6.63-27.39,3.76l-1.18,8.1
		C44,60.28,58.94,53.58,70.65,60.28z"/>
</g>
</svg>
