<?xml version="1.0" encoding="utf-8"?>
<!-- Generator: Adobe Illustrator 25.2.0, SVG Export Plug-In . SVG Version: 6.00 Build 0)  -->
<svg version="1.1" id="Layer_1" xmlns="http://www.w3.org/2000/svg" xmlns:xlink="http://www.w3.org/1999/xlink" x="0px" y="0px"
	 viewBox="0 0 24 24" style="enable-background:new 0 0 24 24;" xml:space="preserve">
<path d="M22,5.8c-0.74,0.33-1.53,0.55-2.36,0.65c0.85-0.51,1.5-1.31,1.8-2.27c-0.79,0.47-1.67,0.81-2.61,1
	c-0.75-0.8-1.81-1.3-2.99-1.3c-2.65,0-4.6,2.47-4,5.04c-3.41-0.17-6.43-1.8-8.46-4.29C2.32,6.47,2.84,8.88,4.66,10.1
	C3.99,10.08,3.36,9.9,2.8,9.59c-0.05,1.9,1.32,3.68,3.29,4.08c-0.58,0.16-1.21,0.19-1.85,0.07c0.52,1.63,2.04,2.82,3.83,2.85
	c-1.73,1.35-3.9,1.96-6.08,1.7c1.82,1.16,3.97,1.84,6.29,1.84c7.62,0,11.92-6.43,11.66-12.2C20.75,7.34,21.45,6.62,22,5.8z"/>
</svg>
